Coordinates
version=1
nRows=9
nColumns=36
inDegrees=yes

Units are S.I. units (second, meters, Newtons, ...)
If the header above contains a line with 'inDegrees', this indicates whether rotational values are in degrees (yes) or radians (no).

endheader
time	pelvis_tilt	pelvis_list	pelvis_rotation	pelvis_tx	pelvis_ty	pelvis_tz	hip_flexion_r	hip_adduction_r	hip_rotation_r	knee_angle_r	knee_angle_r_beta	ankle_angle_r	subtalar_angle_r	mtp_angle_r	hip_flexion_l	hip_adduction_l	hip_rotation_l	knee_angle_l	knee_angle_l_beta	ankle_angle_l	subtalar_angle_l	mtp_angle_l	lumbar_extension	lumbar_bending	lumbar_rotation	arm_flex_r	arm_add_r	arm_rot_r	elbow_flex_r	pro_sup_r	arm_flex_l	arm_add_l	arm_rot_l	elbow_flex_l	pro_sup_l
     30.00000000	     -5.91652890	      4.98263723	     -3.90733464	      0.65847524	      1.01577662	      0.84051503	     10.47910697	     -5.76882960	      8.61751873	     54.02571699	      0.94292664	    -17.05983115	    -16.91981803	     -7.49999987	     25.81690316	      2.11730804	    -10.09625528	     26.58157806	      0.46393606	      7.88133949	     -4.35305579	     -7.49999987	     -3.32834884	     -2.56527052	      7.65943580	      4.42113893	    -11.07637970	      1.43978065	     19.94486546	     69.13018631	      2.02804019	     -6.38719504	     -4.54464003	     14.21006736	     70.18196425
     30.01666670	     -6.10978703	      5.36756832	     -3.93039372	      0.65846142	      1.01719148	      0.83845681	     13.65943272	     -5.86335396	      9.11067669	     58.08403605	      1.01375767	    -19.07410615	    -16.44366340	     -7.49999987	     24.77682894	      2.59971921	    -10.47480844	     26.31585131	      0.45929825	      8.80428189	     -4.48357556	     -7.49999987	     -3.25385597	     -2.95907904	      7.17143470	      4.05853637	    -10.71616506	      1.23509407	     19.29725828	     68.69815924	      2.79196925	     -6.67204953	     -4.55355821	     15.55721948	     69.65624912
     30.03333330	     -6.13338080	      5.57743597	     -3.97060308	      0.65838745	      1.02027925	      0.83787072	     16.01890534	     -5.78831729	      9.35640730	     60.85128153	      1.06205522	    -19.48623070	    -15.31080525	     -7.49999987	     23.45097935	      2.89803853	    -10.80398021	     25.89289146	      0.45191621	      9.61230938	     -4.25699820	     -7.49999987	     -3.35450815	     -3.13592660	      6.76389500	      3.83495365	    -10.48300362	      1.38292864	     18.66619367	     68.93902339	      3.58449096	     -6.94862234	     -4.31719386	     16.54271702	     69.90444897
     30.05000000	     -6.25667797	      5.46092804	     -3.83914286	      0.65830144	      1.02477203	      0.83757406	     17.97265786	     -5.40425210	      9.21542620	     62.52418216	      1.09125284	    -18.94564619	    -14.39208515	     -7.49999987	     22.22479016	      2.93390703	    -10.80227947	     25.41235778	      0.44352931	     10.18447980	     -3.96780634	     -7.49999987	     -3.34406108	     -2.86206044	      6.24737144	      3.72349604	    -10.37695962	      1.53619721	     17.80516229	     69.28872959	      4.14466893	     -7.16626736	     -4.24598843	     17.90533146	     70.21188094
     30.06666670	     -6.23299521	      5.21683640	     -3.68009663	      0.65800135	      1.02887480	      0.83715630	     19.66017943	     -4.92955211	      8.93087982	     63.30354000	      1.10485520	    -17.36163786	    -14.31021731	     -7.49999987	     20.80302642	      2.86381730	    -10.74123095	     24.77762864	      0.43245120	     10.65235357	     -3.50928112	     -7.49999987	     -3.57056445	     -2.43817331	      5.70057394	      3.65213952	    -10.30097466	      1.45491738	     17.31943013	     69.19589441	      4.70748327	     -7.34629467	     -4.84383565	     19.41540359	     69.96687068
     30.08333330	     -6.20966988	      4.91554997	     -3.49665963	      0.65771313	      1.03055189	      0.83652527	     21.48138787	     -4.47352715	      8.63241630	     63.33408509	      1.10538831	    -14.38284377	    -14.90401757	     -7.49999987	     19.30025544	      2.75703575	    -10.67573621	     24.04866897	      0.41972845	     11.18993499	     -2.78359503	     -7.49999987	     -3.91425262	     -1.91396121	      5.26200082	      3.48902680	    -10.35553258	      1.37472182	     17.17550180	     68.97165863	      5.28659954	     -7.56488922	     -5.42996668	     21.13336026	     69.59374912
     30.10000000	     -6.11818145	      4.59438079	     -3.21544948	      0.65755111	      1.03134151	      0.83593467	     23.37275021	     -4.15782345	      8.22912153	     62.76330298	      1.09542629	    -10.17770413	    -15.36432024	     -7.49999987	     17.55844417	      2.70382769	    -10.48224306	     23.08292854	      0.40287310	     11.72262620	     -2.05796058	     -7.49999987	     -4.30010859	     -1.34061439	      3.85440659	      3.90259368	    -10.30259257	      2.41483886	     16.50078446	     70.94630799	      5.17069752	     -7.71564926	     -8.58925910	     23.71821319	     71.11313868
     30.11666670	     -6.17625882	      4.08221393	     -2.80925396	      0.65763525	      1.03391159	      0.83532659	     25.26308835	     -3.80264371	      7.54493491	     61.23728806	      1.06879230	     -6.17792314	    -15.75973167	     -7.49999987	     15.80743951	      2.50238862	    -10.12343507	     21.84865512	      0.38133097	     12.34786563	     -1.33332412	     -7.49999987	     -4.45909603	     -0.56341087	      3.39133474	      3.26053196	    -10.35662230	      2.27830846	     16.70973614	     70.85927280	      5.89788689	     -7.91640630	     -8.68430940	     25.09658787	     71.15866793
     30.13333330	     -5.98459581	      3.52306527	     -2.43163296	      0.65715969	      1.03930922	      0.83462475	     26.50842948	     -3.49463326	      6.68249994	     58.54630487	      1.02182578	     -2.55842494	    -15.55433615	     -7.49999987	     13.69072021	      2.23570653	     -9.95432707	     20.31375042	      0.35454183	     12.96938189	     -0.30156834	     -7.49999987	     -4.93428554	      0.26010806	      2.57010131	      2.92255889	    -10.23881005	      1.87787919	     16.36803931	     70.25325357	      6.54798903	     -8.12116158	     -8.98872834	     26.58760674	     70.73293027
